<?xml version="1.0" encoding="UTF-8"?>
<svg version="1.1" xmlns="http://www.w3.org/2000/svg" width="512" height="512">
<path d="M0 0 C0.70935196 -0.0065712 1.41870392 -0.0131424 2.14955139 -0.01991272 C4.49724438 -0.03962233 6.84487337 -0.05130481 9.19262695 -0.0612793 C9.99630014 -0.06535482 10.79997334 -0.06943035 11.62800026 -0.07362938 C15.88415901 -0.094483 20.14028561 -0.10878616 24.39648438 -0.11816406 C28.78008227 -0.12920995 33.16316997 -0.16359044 37.54658794 -0.20333576 C40.92764694 -0.22955904 44.30858559 -0.23786107 47.68973732 -0.24144554 C49.30478157 -0.246299 50.91982088 -0.25787749 52.53476524 -0.27648354 C70.21048053 -0.46742395 70.21048053 -0.46742395 77.0168457 6.1418457 C81.94167502 13.32981912 83.63486628 18.3756005 82.9934082 27.17700195 C82.6634082 28.16700195 82.3334082 29.15700195 81.9934082 30.17700195 C82.66283447 30.15605469 83.33226074 30.13510742 84.02197266 30.11352539 C87.11645901 30.02930718 90.21070313 29.97801181 93.3059082 29.92700195 C94.8846875 29.87672852 94.8846875 29.87672852 96.49536133 29.82543945 C108.08181174 29.68283699 116.41992959 32.66567688 124.76293945 40.7434082 C132.88975908 49.61032349 135.2982093 57.4896135 135.26756287 69.29301453 C135.27279954 70.29664357 135.27803622 71.3002726 135.28343159 72.33431464 C135.29840436 75.68906286 135.29913614 79.04365819 135.29980469 82.3984375 C135.30742764 84.80674496 135.31585538 87.21504999 135.32502747 89.62335205 C135.34695745 96.15812435 135.35579046 102.69286056 135.36085391 109.22766089 C135.36411539 113.30843891 135.37064026 117.38920754 135.3778553 121.46998024 C135.39740716 132.77224135 135.41382175 144.07449377 135.41673183 155.37677288 C135.4169194 156.09908554 135.41710697 156.82139821 135.41730023 157.56559913 C135.41766647 159.02980093 135.41803017 160.49400273 135.41839134 161.95820453 C135.41857415 162.68500973 135.41875696 163.41181493 135.41894531 164.16064453 C135.41921614 165.25218383 135.41921614 165.25218383 135.41949243 166.36577443 C135.42303899 178.17381935 135.45009761 189.98168248 135.4874432 201.78966429 C135.52549259 213.91720807 135.54488903 226.04466149 135.54519135 238.1722663 C135.54577639 244.97994777 135.55429949 251.78741187 135.58318901 258.59503746 C135.61021012 264.9915414 135.61163679 271.38772751 135.59553337 277.78427124 C135.59371042 280.13532766 135.60048521 282.4864083 135.61635208 284.83741188 C135.63665056 288.03944009 135.626356 291.23993391 135.60813904 294.44194031 C135.62133901 295.37879644 135.63453897 296.31565256 135.64813894 297.28089827 C135.56624898 303.55388473 135.56624898 303.55388473 132.62306786 306.75537968 C129.60680386 308.38600442 127.79129828 308.66249979 124.37695312 308.63110352 C123.27618942 308.63080139 122.17542572 308.63049927 121.04130554 308.63018799 C119.86405411 308.60954285 118.68680267 308.58889771 117.47387695 308.56762695 C115.65331535 308.55913727 115.65331535 308.55913727 113.79597473 308.55047607 C109.92388276 308.52810638 106.05271997 308.47790577 102.1809082 308.42700195 C99.55396845 308.40693786 96.92701418 308.38868694 94.30004883 308.37231445 C87.86418554 308.32823941 81.42886326 308.26131987 74.9934082 308.17700195 C74.86793106 308.92207504 74.74245392 309.66714813 74.61317444 310.43479919 C74.44224777 311.41763382 74.27132111 312.40046844 74.09521484 313.41308594 C73.9284877 314.38503403 73.76176056 315.35698212 73.58998108 316.35838318 C72.75414355 320.30745201 71.29216461 323.67826471 69.4309082 327.23950195 C69.08084717 327.92069092 68.73078613 328.60187988 68.37011719 329.30371094 C60.21570828 344.53525899 46.60821399 354.31074872 30.2590332 359.3215332 C14.0048368 363.12265183 -3.08478639 360.21512575 -17.37768555 351.93481445 C-29.44029971 343.86917348 -38.20609312 332.87997342 -43.0065918 319.17700195 C-43.6665918 315.54700195 -44.3265918 311.91700195 -45.0065918 308.17700195 C-95.1665918 308.17700195 -145.3265918 308.17700195 -197.0065918 308.17700195 C-197.6665918 311.80700195 -198.3265918 315.43700195 -199.0065918 319.17700195 C-200.10664489 322.02869835 -201.16943952 324.56147555 -202.5690918 327.23950195 C-202.91915283 327.92069092 -203.26921387 328.60187988 -203.62988281 329.30371094 C-211.78429172 344.53525899 -225.39178601 354.31074872 -241.7409668 359.3215332 C-257.9951632 363.12265183 -275.08478639 360.21512575 -289.37768555 351.93481445 C-301.64261609 343.73389507 -312.55894862 331.21612661 -315.56730652 316.41903687 C-315.73829361 315.43988312 -315.9092807 314.46072937 -316.08544922 313.4519043 C-316.25968918 312.46346527 -316.43392914 311.47502625 -316.6134491 310.45663452 C-316.74318619 309.70435577 -316.87292328 308.95207703 -317.0065918 308.17700195 C-317.68453293 308.1858844 -318.36247406 308.19476685 -319.06095886 308.20391846 C-326.11737639 308.29241685 -333.17363624 308.35274701 -340.23046875 308.39672852 C-342.86399743 308.41684293 -345.49748146 308.44413799 -348.13085938 308.47875977 C-351.91637187 308.52728283 -355.7012938 308.54997308 -359.48706055 308.56762695 C-360.66431198 308.58827209 -361.84156342 308.60891724 -363.05448914 308.63018799 C-367.62575778 308.63144265 -371.06430344 308.60969986 -375.24975586 306.68774414 C-377.75281138 303.11055918 -377.70548471 299.82699208 -377.63549805 295.61450195 C-377.63791 294.78619873 -377.64032196 293.95789551 -377.64280701 293.10449219 C-377.64182907 291.35615239 -377.62844801 289.60778143 -377.60351562 287.85961914 C-377.56920336 285.18569607 -377.58285739 282.51507803 -377.60229492 279.84106445 C-377.59539626 278.14052957 -377.58572369 276.44000321 -377.57299805 274.73950195 C-377.57795792 273.9414917 -377.58291779 273.14348145 -377.58802795 272.32128906 C-377.51193698 268.72931114 -377.3020321 266.58231997 -375.15869141 263.6418457 C-373.0065918 262.17700195 -373.0065918 262.17700195 -370.0065918 262.17700195 C-370.0065918 257.55700195 -370.0065918 252.93700195 -370.0065918 248.17700195 C-371.6565918 247.51700195 -373.3065918 246.85700195 -375.0065918 246.17700195 C-377.5742577 243.60933605 -377.25104587 241.91063652 -377.2787407 238.41029841 C-377.27307172 237.19062133 -377.27307172 237.19062133 -377.26728821 235.94630432 C-377.27111376 235.08508262 -377.2749393 234.22386092 -377.27888077 233.33654159 C-377.28924797 230.43377267 -377.28521161 227.53120019 -377.28125 224.62841797 C-377.28559442 222.55419734 -377.29077666 220.47997833 -377.29673767 218.40576172 C-377.31016798 212.75914661 -377.31070187 207.11259826 -377.30817437 201.46597028 C-377.30710739 196.75893547 -377.31198102 192.05191432 -377.31677979 187.34488243 C-377.32788893 176.2439087 -377.32830449 165.1429688 -377.32226562 154.04199219 C-377.31622344 142.57442666 -377.32853989 131.10698376 -377.34983569 119.63943917 C-377.36742533 109.80757823 -377.37345723 99.97575641 -377.37019795 90.14388031 C-377.36838073 84.26568677 -377.37106481 78.38758068 -377.38491249 72.50940132 C-377.39744338 66.98301686 -377.39559183 61.45682416 -377.3825016 55.93044281 C-377.3801259 53.89826583 -377.3829058 51.86607555 -377.39112473 49.8339138 C-377.40151016 47.06727776 -377.393558 44.30129503 -377.3808136 41.53468323 C-377.38818788 40.7237959 -377.39556217 39.91290857 -377.40315992 39.0774489 C-377.35033257 33.65483444 -377.35033257 33.65483444 -375.77999896 31.47192079 C-373.47207632 29.78670571 -372.1028372 29.8011074 -369.25734711 29.79947853 C-367.7829113 29.78774367 -367.7829113 29.78774367 -366.27868891 29.77577174 C-365.19611732 29.7824639 -364.11354573 29.78915607 -362.99816895 29.79605103 C-361.85024415 29.79137105 -360.70231936 29.78669108 -359.51960897 29.78186929 C-356.32822037 29.77195197 -353.13717224 29.77555049 -349.94579196 29.78482795 C-346.50606362 29.79159919 -343.06638229 29.78114681 -339.62666321 29.77288818 C-332.88625936 29.759528 -326.14595556 29.76243871 -319.40554774 29.77112611 C-313.92890069 29.77789328 -308.45228174 29.77882357 -302.97563171 29.77555466 C-301.80772591 29.77486511 -301.80772591 29.77486511 -300.61622605 29.77416163 C-299.03465083 29.77320248 -297.45307563 29.77222984 -295.87150043 29.77124386 C-281.03094134 29.76268327 -266.19043778 29.77253456 -251.34988779 29.78864495 C-238.60798656 29.80204875 -225.86616732 29.79972084 -213.12426758 29.78588867 C-198.33786687 29.76984464 -183.55151487 29.76350731 -168.76510668 29.77272546 C-167.18925509 29.77368114 -165.61340349 29.77462425 -164.03755188 29.77555466 C-162.87444005 29.7762489 -162.87444005 29.7762489 -161.68783101 29.77695716 C-156.21592231 29.77955059 -150.74404443 29.77516847 -145.2721405 29.768116 C-138.60633593 29.75971385 -131.94063738 29.76195394 -125.274845 29.77795823 C-121.87194537 29.78585839 -118.46922268 29.78890312 -115.06632423 29.77901077 C-111.38237541 29.77086558 -107.69893096 29.78103208 -104.01501465 29.79605103 C-102.39115727 29.78601278 -102.39115727 29.78601278 -100.73449469 29.77577174 C-99.26005888 29.7875066 -99.26005888 29.7875066 -97.75583649 29.79947853 C-96.90499056 29.79996559 -96.05414464 29.80045264 -95.17751551 29.80095446 C-92.49224608 30.26609694 -91.60528533 30.99684414 -90.0065918 33.17700195 C-89.63744831 36.31042004 -89.63744831 36.31042004 -89.64582825 40.25737 C-89.64326497 40.98272204 -89.6407017 41.70807408 -89.63806075 42.45540649 C-89.63310888 44.89237024 -89.64963836 47.32871807 -89.66601562 49.765625 C-89.6668616 51.50988755 -89.66638734 53.25415116 -89.66468811 54.99841309 C-89.66382556 59.73991288 -89.68149327 64.4811861 -89.70240998 69.22263312 C-89.72113358 74.17541344 -89.72292381 79.12819866 -89.72648621 84.08100891 C-89.73581938 93.46264897 -89.76045037 102.84418445 -89.79053468 112.2257784 C-89.82403912 122.90519475 -89.84055474 133.58461602 -89.85562098 144.26407182 C-89.88699882 166.23510853 -89.94038663 188.20604498 -90.0065918 210.17700195 C-85.0565918 210.17700195 -80.1065918 210.17700195 -75.0065918 210.17700195 C-75.01658455 206.86079048 -75.01658455 206.86079048 -75.02677917 203.47758484 C-75.08800802 182.68462111 -75.13269415 161.89166924 -75.16202831 141.09863567 C-75.17751098 130.4076806 -75.19862721 119.71679159 -75.23291016 109.02587891 C-75.2627697 99.70995234 -75.28215661 90.3940736 -75.28885728 81.0781005 C-75.29277539 76.14329695 -75.30201246 71.20863025 -75.32378197 66.27387047 C-75.34409274 61.63232265 -75.3504366 56.99096853 -75.34591484 52.34938049 C-75.34674247 50.64293173 -75.35274027 48.93647672 -75.36420822 47.2300663 C-75.37906803 44.90559368 -75.37556971 42.58185861 -75.36735535 40.25737 C-75.37012073 38.95487651 -75.3728861 37.65238302 -75.37573528 36.31042004 C-75.0065918 33.17700195 -75.0065918 33.17700195 -73.62522888 31.25702667 C-71.37134056 29.75313483 -69.7741556 29.81603799 -67.07617188 29.83642578 C-65.57495537 29.83676567 -65.57495537 29.83676567 -64.04341125 29.83711243 C-62.42610359 29.86033821 -62.42610359 29.86033821 -60.77612305 29.8840332 C-59.67056564 29.88827805 -58.56500824 29.89252289 -57.4259491 29.89689636 C-53.89008368 29.91370758 -50.35478535 29.95136511 -46.8190918 29.98950195 C-44.42391773 30.00454559 -42.02873474 30.01823455 -39.63354492 30.03051758 C-33.75769994 30.0636191 -27.88218638 30.11384302 -22.0065918 30.17700195 C-22.3365918 29.51700195 -22.6665918 28.85700195 -23.0065918 28.17700195 C-23.97814449 20.18251123 -22.79710936 13.73244705 -18.0065918 7.17700195 C-12.33632107 1.74942764 -7.84750266 0.06017433 0 0 Z " fill="#000000" transform="translate(377.006591796875,75.822998046875)"/>
<path d="M0 0 C84.81 0 169.62 0 257 0 C257 81.84 257 163.68 257 248 C226.31 248 195.62 248 164 248 C163.01 243.545 163.01 243.545 162 239 C157.67416572 223.78782446 148.71946078 211.53789161 135 203.625 C121.49473483 196.14471693 106.5478369 193.85470121 91.3203125 196.68359375 C79.25496568 200.17010284 67.54272544 206.45882714 59.76908875 216.60688782 C57.10978411 218.70102227 54.94822575 218.35970415 51.60083008 218.34057617 C50.95665634 218.34101425 50.3124826 218.34145233 49.64878845 218.34190369 C47.52205979 218.33981559 45.39612198 218.31648513 43.26953125 218.29296875 C41.79408702 218.28737283 40.31863722 218.28310271 38.84318542 218.28010559 C34.96160466 218.26865637 31.08036117 218.23918887 27.19891357 218.20599365 C23.23747317 218.17529424 19.27597822 218.16160055 15.31445312 218.14648438 C7.54279726 218.11431887 -0.22851113 218.06155072 -8 218 C-8 213.05 -8 208.1 -8 203 C-5.03 202.01 -5.03 202.01 -2 201 C-0.15810725 197.5349062 -0.84680067 192.91616672 -0.84178162 189.0401001 C-0.83438713 187.83120369 -0.83438713 187.83120369 -0.82684326 186.59788513 C-0.81145385 183.88589696 -0.8031027 181.17393218 -0.79467773 178.46191406 C-0.78496301 176.48900012 -0.77481758 174.51608826 -0.76427555 172.54317856 C-0.73720525 167.25394733 -0.71603958 161.96470778 -0.69608307 156.67544556 C-0.67647449 151.71443926 -0.65155945 146.7534652 -0.6270752 141.79248047 C-0.55854268 127.27834455 -0.49854431 112.76416935 -0.4375 98.25 C-0.293125 65.8275 -0.14875 33.405 0 0 Z " fill="#FE6262" transform="translate(15,121)"/>
<path d="M0 0 C59.4 0 118.8 0 180 0 C180 54.45 180 108.9 180 165 C124.3125 165.3125 124.3125 165.3125 106.79418945 165.38793945 C101.56659764 165.42454681 101.56659764 165.42454681 96.33903503 165.4650116 C94.02880391 165.48105523 91.7185287 165.49141476 89.4082489 165.49711609 C67.52512541 165.55822225 49.81713229 166.75791359 33.21484375 182.6875 C23.52458912 192.80501453 17.98551599 204.10138809 16 218 C10.72 218 5.44 218 0 218 C0 146.06 0 74.12 0 0 Z " fill="#FE6262" transform="translate(317,151)"/>
<path d="M0 0 C1.21110947 -0.02114868 1.21110947 -0.02114868 2.44668579 -0.04272461 C3.31852509 -0.03260345 4.19036438 -0.0224823 5.08862305 -0.01205444 C6.01766449 -0.02081604 6.94670593 -0.02957764 7.90390015 -0.03860474 C10.96985808 -0.06058191 14.03436962 -0.04605162 17.1003418 -0.02914429 C19.23356401 -0.03251289 21.36678435 -0.03736588 23.5 -0.04364014 C27.96885467 -0.05100921 32.43720934 -0.04030445 36.90600586 -0.01693726 C42.63297829 0.01155008 48.35877917 -0.00485364 54.08570862 -0.03479958 C58.49012065 -0.05287134 62.89425513 -0.04711498 67.29867554 -0.03416061 C69.41018818 -0.03082629 71.52172606 -0.03491458 73.63320923 -0.04655838 C76.58517148 -0.0592647 79.53523934 -0.03989246 82.48706055 -0.01205444 C83.79481949 -0.02723618 83.79481949 -0.02723618 85.1289978 -0.04272461 C85.93640411 -0.02862549 86.74381042 -0.01452637 87.57568359 0 C88.27251755 0.00188513 88.9693515 0.00377026 89.68730164 0.00571251 C93.0750624 1.02049834 94.61797212 2.90538443 96.7878418 5.63491821 C97.4170475 8.65688324 97.4170475 8.65688324 97.42276001 12.08694458 C97.43685913 13.39078598 97.45095825 14.69462738 97.46548462 16.03797913 C97.45576386 17.4758946 97.44552306 18.91380663 97.43481445 20.35171509 C97.44159229 21.87142484 97.45049635 23.39112638 97.46136475 24.91081238 C97.48414549 29.0328265 97.47532716 33.15421442 97.45946932 37.2762394 C97.44680383 41.59141341 97.45855223 45.90653407 97.46640015 50.22171021 C97.47549484 57.46810526 97.46351361 64.71424545 97.43969727 71.96060181 C97.41248619 80.33652339 97.42130049 88.71183644 97.44882929 97.08774328 C97.47152458 104.2811216 97.47471844 111.47431681 97.46163595 118.66771936 C97.45384369 122.96315644 97.45279349 127.25830754 97.46931839 131.5537262 C97.48377017 135.59231465 97.47372942 139.63011915 97.44484711 143.66862297 C97.43823994 145.15006649 97.4401278 146.63157607 97.45116043 148.11299324 C97.46483841 150.13626869 97.44463797 152.15968845 97.42276001 154.18289185 C97.41993232 155.88077221 97.41993232 155.88077221 97.4170475 157.61295319 C96.580523 161.63063418 94.98018145 163.1307807 91.7878418 165.63491821 C89.68730164 166.26412392 89.68730164 166.26412392 87.57568359 166.26983643 C86.36457413 166.29098511 86.36457413 166.29098511 85.1289978 166.31256104 C83.82123886 166.2973793 83.82123886 166.2973793 82.48706055 166.28189087 C81.5580191 166.29065247 80.62897766 166.29941406 79.67178345 166.30844116 C76.60582551 166.33041834 73.54131398 166.31588805 70.4753418 166.29898071 C68.34211958 166.30234932 66.20889924 166.30720231 64.07568359 166.31347656 C59.60682892 166.32084563 55.13847425 166.31014088 50.66967773 166.28677368 C44.9427053 166.25828634 39.21690443 166.27469006 33.48997498 166.304636 C29.08556295 166.32270776 24.68142847 166.3169514 20.27700806 166.30399704 C18.16549541 166.30066271 16.05395754 166.30475101 13.94247437 166.31639481 C10.99051211 166.32910113 8.04044425 166.30972888 5.08862305 166.28189087 C4.21678375 166.29201202 3.34494446 166.30213318 2.44668579 166.31256104 C1.63927948 166.29846191 0.83187317 166.28436279 0 166.26983643 C-0.69683395 166.2679513 -1.39366791 166.26606617 -2.11161804 166.26412392 C-5.4993788 165.24933809 -7.04228852 163.36445199 -9.2121582 160.63491821 C-9.84136391 157.61295319 -9.84136391 157.61295319 -9.84707642 154.18289185 C-9.8682251 152.22712975 -9.8682251 152.22712975 -9.88980103 150.2318573 C-9.88008026 148.79394183 -9.86983947 147.35602979 -9.85913086 145.91812134 C-9.86590869 144.39841159 -9.87481276 142.87871005 -9.88568115 141.35902405 C-9.9084619 137.23700993 -9.89964356 133.115622 -9.88378572 128.99359703 C-9.87112024 124.67842302 -9.88286863 120.36330235 -9.89071655 116.04812622 C-9.89981125 108.80173117 -9.88783002 101.55559097 -9.86401367 94.30923462 C-9.8368026 85.93331303 -9.8456169 77.55799998 -9.8731457 69.18209314 C-9.89584099 61.98871482 -9.89903484 54.79551962 -9.88595235 47.60211706 C-9.87816009 43.30667999 -9.87710989 39.01152889 -9.8936348 34.71611023 C-9.90808658 30.67752177 -9.89804582 26.63971728 -9.86916351 22.60121346 C-9.86255635 21.11976994 -9.86444421 19.63826036 -9.87547684 18.15684319 C-9.88915482 16.13356774 -9.86895438 14.11014798 -9.84707642 12.08694458 C-9.84519129 10.95502434 -9.84330616 9.8231041 -9.84136391 8.65688324 C-8.76774712 3.50048946 -5.39463837 0.01459398 0 0 Z " fill="#000000" transform="translate(160.212158203125,135.36508178710938)"/>
<path d="M0 0 C1.21110947 -0.02114868 1.21110947 -0.02114868 2.44668579 -0.04272461 C3.31852509 -0.03260345 4.19036438 -0.0224823 5.08862305 -0.01205444 C6.01766449 -0.02081604 6.94670593 -0.02957764 7.90390015 -0.03860474 C10.96985808 -0.06058191 14.03436962 -0.04605162 17.1003418 -0.02914429 C19.23356401 -0.03251289 21.36678435 -0.03736588 23.5 -0.04364014 C27.96885467 -0.05100921 32.43720934 -0.04030445 36.90600586 -0.01693726 C42.63297829 0.01155008 48.35877917 -0.00485364 54.08570862 -0.03479958 C58.49012065 -0.05287134 62.89425513 -0.04711498 67.29867554 -0.03416061 C69.41018818 -0.03082629 71.52172606 -0.03491458 73.63320923 -0.04655838 C76.58517148 -0.0592647 79.53523934 -0.03989246 82.48706055 -0.01205444 C83.79481949 -0.02723618 83.79481949 -0.02723618 85.1289978 -0.04272461 C85.93640411 -0.02862549 86.74381042 -0.01452637 87.57568359 0 C88.27251755 0.00188513 88.9693515 0.00377026 89.68730164 0.00571251 C93.0750624 1.02049834 94.61797212 2.90538443 96.7878418 5.63491821 C97.4170475 8.65688324 97.4170475 8.65688324 97.42276001 12.08694458 C97.43685913 13.39078598 97.45095825 14.69462738 97.46548462 16.03797913 C97.45576386 17.4758946 97.44552306 18.91380663 97.43481445 20.35171509 C97.44159229 21.87142484 97.45049635 23.39112638 97.46136475 24.91081238 C97.48414549 29.0328265 97.47532716 33.15421442 97.45946932 37.2762394 C97.44680383 41.59141341 97.45855223 45.90653407 97.46640015 50.22171021 C97.47549484 57.46810526 97.46351361 64.71424545 97.43969727 71.96060181 C97.41248619 80.33652339 97.42130049 88.71183644 97.44882929 97.08774328 C97.47152458 104.2811216 97.47471844 111.47431681 97.46163595 118.66771936 C97.45384369 122.96315644 97.45279349 127.25830754 97.46931839 131.5537262 C97.48377017 135.59231465 97.47372942 139.63011915 97.44484711 143.66862297 C97.43823994 145.15006649 97.4401278 146.63157607 97.45116043 148.11299324 C97.46483841 150.13626869 97.44463797 152.15968845 97.42276001 154.18289185 C97.41993232 155.88077221 97.41993232 155.88077221 97.4170475 157.61295319 C96.580523 161.63063418 94.98018145 163.1307807 91.7878418 165.63491821 C89.68730164 166.26412392 89.68730164 166.26412392 87.57568359 166.26983643 C86.36457413 166.29098511 86.36457413 166.29098511 85.1289978 166.31256104 C83.82123886 166.2973793 83.82123886 166.2973793 82.48706055 166.28189087 C81.5580191 166.29065247 80.62897766 166.29941406 79.67178345 166.30844116 C76.60582551 166.33041834 73.54131398 166.31588805 70.4753418 166.29898071 C68.34211958 166.30234932 66.20889924 166.30720231 64.07568359 166.31347656 C59.60682892 166.32084563 55.13847425 166.31014088 50.66967773 166.28677368 C44.9427053 166.25828634 39.21690443 166.27469006 33.48997498 166.304636 C29.08556295 166.32270776 24.68142847 166.3169514 20.27700806 166.30399704 C18.16549541 166.30066271 16.05395754 166.30475101 13.94247437 166.31639481 C10.99051211 166.32910113 8.04044425 166.30972888 5.08862305 166.28189087 C4.21678375 166.29201202 3.34494446 166.30213318 2.44668579 166.31256104 C1.63927948 166.29846191 0.83187317 166.28436279 0 166.26983643 C-0.69683395 166.2679513 -1.39366791 166.26606617 -2.11161804 166.26412392 C-5.4993788 165.24933809 -7.04228852 163.36445199 -9.2121582 160.63491821 C-9.84136391 157.61295319 -9.84136391 157.61295319 -9.84707642 154.18289185 C-9.8682251 152.22712975 -9.8682251 152.22712975 -9.88980103 150.2318573 C-9.88008026 148.79394183 -9.86983947 147.35602979 -9.85913086 145.91812134 C-9.86590869 144.39841159 -9.87481276 142.87871005 -9.88568115 141.35902405 C-9.9084619 137.23700993 -9.89964356 133.115622 -9.88378572 128.99359703 C-9.87112024 124.67842302 -9.88286863 120.36330235 -9.89071655 116.04812622 C-9.89981125 108.80173117 -9.88783002 101.55559097 -9.86401367 94.30923462 C-9.8368026 85.93331303 -9.8456169 77.55799998 -9.8731457 69.18209314 C-9.89584099 61.98871482 -9.89903484 54.79551962 -9.88595235 47.60211706 C-9.87816009 43.30667999 -9.87710989 39.01152889 -9.8936348 34.71611023 C-9.90808658 30.67752177 -9.89804582 26.63971728 -9.86916351 22.60121346 C-9.86255635 21.11976994 -9.86444421 19.63826036 -9.87547684 18.15684319 C-9.88915482 16.13356774 -9.86895438 14.11014798 -9.84707642 12.08694458 C-9.84519129 10.95502434 -9.84330616 9.8231041 -9.84136391 8.65688324 C-8.76774712 3.50048946 -5.39463837 0.01459398 0 0 Z " fill="#000000" transform="translate(39.212158203125,135.36508178710938)"/>
<path d="M0 0 C39.6 0 79.2 0 120 0 C120 27.06 120 54.12 120 82 C100.21750806 82 100.21750806 82 95 77 C94.13407227 76.18853516 93.26814453 75.37707031 92.37597656 74.54101562 C89.38895865 71.67784688 86.50500318 68.72015155 83.625 65.75 C82.13243043 64.22229416 80.63767394 62.69681571 79.14022827 61.17388916 C77.7956785 59.80475476 76.45747598 58.4293956 75.11962891 57.05371094 C71.54031183 53.58570641 69.16066303 53.85534389 64.25537109 53.79467773 C63.56257553 53.78477814 62.86977997 53.77487854 62.1559906 53.76467896 C59.86184122 53.73304503 57.56767111 53.70829914 55.2734375 53.68359375 C53.68445288 53.66302585 52.09547376 53.64202942 50.50650024 53.62062073 C46.32096805 53.56538309 42.13538634 53.51598131 37.94976807 53.46777344 C32.92952041 53.4087467 27.90936339 53.34250944 22.88919067 53.27747345 C15.25951573 53.17944263 7.62978309 53.09060126 0 53 C0 35.51 0 18.02 0 0 Z " fill="#FDFDFD" transform="translate(347,181)"/>
<path d="M0 0 C1.37192952 -0.00677891 2.74384994 -0.01568358 4.11575317 -0.02655029 C7.83490999 -0.04931864 11.5533723 -0.04051813 15.27254105 -0.02465487 C19.16730857 -0.0119828 23.06201722 -0.02373959 26.95678711 -0.03158569 C33.497016 -0.04067851 40.03696245 -0.02870422 46.57714844 -0.00488281 C54.1351189 0.02232805 61.69241495 0.0135136 69.25036907 -0.01401484 C75.74312195 -0.03671561 82.23567198 -0.03990135 88.72845173 -0.02682149 C92.60471461 -0.01903219 96.48066064 -0.01797071 100.35690308 -0.03450394 C104.00155021 -0.04896389 107.64532918 -0.0389008 111.28988266 -0.01003265 C113.26291464 -0.00028361 115.23602019 -0.01510917 117.20901489 -0.03067017 C125.67265016 0.0706604 125.67265016 0.0706604 129.95643616 2.57069397 C132.38076051 6.94811334 132.33823561 10.58218683 132.25952148 15.5144043 C132.2634642 16.50357346 132.26740692 17.49274261 132.27146912 18.5118866 C132.27817524 21.77748454 132.24902535 25.04168085 132.21875 28.30712891 C132.21449952 30.57726266 132.21217128 32.84740077 132.21168518 35.11753845 C132.20552024 39.87307456 132.18282065 44.62813957 132.1472168 49.38354492 C132.10191889 55.48247531 132.08718945 61.58097923 132.08347988 67.68006229 C132.07905347 72.36661493 132.06375382 77.05307787 132.04460335 81.7395916 C132.03571796 83.98868509 132.02898951 86.23778816 132.02444267 88.48689461 C132.01541002 91.62773896 131.99302787 94.76819595 131.96655273 97.90893555 C131.96588806 98.84047455 131.96522339 99.77201355 131.96453857 100.73178101 C131.94957588 102.01655586 131.94957588 102.01655586 131.93431091 103.32728577 C131.92966041 104.06928758 131.9250099 104.81128939 131.92021847 105.5757761 C131.6178408 107.98398283 130.93289317 109.58769184 129.66015625 111.64697266 C125.07678185 113.93865986 118.75262644 112.92254189 113.72265625 112.95947266 C112.44068359 112.98847656 111.15871094 113.01748047 109.83789062 113.04736328 C99.55463593 113.11553376 90.42832179 111.74809498 82.41015625 104.83447266 C81.52755127 104.09737061 80.64494629 103.36026855 79.7355957 102.60083008 C77.44234323 100.55185384 75.81074979 98.48280909 74.14233398 95.90527344 C69.81091089 89.77147774 65.38900324 85.45332885 57.86126709 83.82546997 C47.51303878 82.51870932 36.95929526 82.97884717 26.55975342 83.27001953 C21.39198712 83.39876564 16.2228485 83.42587148 11.0537672 83.46490955 C7.0383926 83.49661319 3.02543568 83.54407276 -0.98893738 83.64128113 C-1.72350159 83.65577805 -2.4580658 83.67027496 -3.21488953 83.68521118 C-5.19354947 83.72502153 -7.17201025 83.77440842 -9.1504364 83.82450867 C-12.2513243 83.65190003 -13.8618231 83.47573867 -16.33984375 81.64697266 C-18.83184087 78.22842774 -18.61128574 74.78619854 -18.64624023 70.6628418 C-18.65456375 69.96803207 -18.66288727 69.27322235 -18.67146301 68.55735779 C-18.69551536 66.26555749 -18.70432837 63.97404194 -18.7109375 61.68212891 C-18.71990627 60.08556535 -18.72902817 58.48900264 -18.73829651 56.8924408 C-18.75477523 53.54765787 -18.76248478 50.20297491 -18.76538086 46.8581543 C-18.77076885 42.57612826 -18.80846965 38.29504372 -18.85412502 34.01328373 C-18.88389136 30.71639078 -18.89110428 27.41972492 -18.89210701 24.12270927 C-18.89630889 22.54425168 -18.9087421 20.96579339 -18.92962456 19.38746834 C-18.95653771 17.17777622 -18.95171686 14.97027135 -18.93920898 12.76049805 C-18.94427963 11.50459366 -18.94935028 10.24868927 -18.95457458 8.95472717 C-18.33984375 5.64697266 -18.33984375 5.64697266 -16.63612366 2.74281311 C-11.36676499 -0.60755014 -6.11751162 -0.04824877 0 0 Z M-3.33984375 15.64697266 C-3.33984375 33.13697266 -3.33984375 50.62697266 -3.33984375 68.64697266 C1.69265625 68.63794922 6.72515625 68.62892578 11.91015625 68.61962891 C15.10949054 68.62947372 18.30855493 68.64137532 21.5078125 68.66064453 C26.5794909 68.6909968 31.65041217 68.7139697 36.72216797 68.69165039 C40.81404275 68.6741216 44.90451167 68.69081151 48.99621582 68.73064995 C50.55258768 68.73990234 52.10908229 68.73708525 53.66540527 68.72166634 C67.3753175 68.599093 67.3753175 68.599093 72.39794922 72.92114258 C73.51863886 74.13313346 74.61081127 75.3727112 75.66015625 76.64697266 C76.47371582 77.4387793 77.28727539 78.23058594 78.12548828 79.04638672 C78.79950684 79.74473633 79.47352539 80.44308594 80.16796875 81.16259766 C80.92722656 81.93861328 81.68648438 82.71462891 82.46875 83.51416016 C84.02463045 85.11464427 85.57666604 86.71887431 87.125 88.32666016 C88.26001953 89.48294922 88.26001953 89.48294922 89.41796875 90.66259766 C90.08973145 91.35643555 90.76149414 92.05027344 91.45361328 92.76513672 C99.782099 99.86803204 104.59905381 97.64697266 116.66015625 97.64697266 C116.66015625 70.58697266 116.66015625 43.52697266 116.66015625 15.64697266 C77.06015625 15.64697266 37.46015625 15.64697266 -3.33984375 15.64697266 Z " fill="#020101" transform="translate(350.33984375,165.35302734375)"/>
<path d="M0 0 C8.98637227 7.83773822 16.46003189 17.51958295 18 29.6875 C18.86868677 43.1613863 16.18499954 55.06533978 7.6953125 65.7734375 C2.61333648 71.51115236 -2.87109639 75.83593856 -10 78.6875 C-10.73734375 78.9865625 -11.4746875 79.285625 -12.234375 79.59375 C-22.75370726 83.3064555 -34.69804971 82.96863353 -45 78.6875 C-57.0364907 72.3671175 -65.99256491 63.60010702 -70.44140625 50.60546875 C-74.01955995 38.31964032 -72.60496598 25.12198432 -66.4921875 13.92578125 C-59.42563513 3.19448196 -50.27588492 -3.41594028 -38.25 -7.625 C-25.01829618 -10.32967693 -10.96331286 -8.1154574 0 0 Z " fill="#50516E" transform="translate(419,339.3125)"/>
<path d="M0 0 C8.98637227 7.83773822 16.46003189 17.51958295 18 29.6875 C18.86868677 43.1613863 16.18499954 55.06533978 7.6953125 65.7734375 C2.61333648 71.51115236 -2.87109639 75.83593856 -10 78.6875 C-10.73734375 78.9865625 -11.4746875 79.285625 -12.234375 79.59375 C-22.75370726 83.3064555 -34.69804971 82.96863353 -45 78.6875 C-57.0364907 72.3671175 -65.99256491 63.60010702 -70.44140625 50.60546875 C-74.01955995 38.31964032 -72.60496598 25.12198432 -66.4921875 13.92578125 C-59.42563513 3.19448196 -50.27588492 -3.41594028 -38.25 -7.625 C-25.01829618 -10.32967693 -10.96331286 -8.1154574 0 0 Z " fill="#50516E" transform="translate(147,339.3125)"/>
<path d="M0 0 C7.26 0 14.52 0 22 0 C22 81.84 22 163.68 22 248 C-8.69 248 -39.38 248 -71 248 C-71 247.67 -71 247.34 -71 247 C-47.57 247 -24.14 247 0 247 C-0.19793839 225.08502028 -0.19793839 225.08502028 -0.45043945 203.1706543 C-0.46503782 200.43018563 -0.47778001 197.68970618 -0.48828125 194.94921875 C-0.50134811 194.23643265 -0.51441498 193.52364655 -0.52787781 192.78926086 C-0.56444969 190.68924008 -0.56953189 188.59125799 -0.56762695 186.4909668 C-0.57873001 185.30738083 -0.58983307 184.12379486 -0.60127258 182.90434265 C0 180 0 180 2.47297668 178.21931458 C3.30689438 177.81694077 4.14081207 177.41456696 5 177 C6.38228606 174.23542787 6.13552744 171.99712448 6.14717102 168.90200806 C6.15432632 167.60084549 6.16148163 166.29968292 6.16885376 164.95909119 C6.17169414 163.50869775 6.17440586 162.05830405 6.17700195 160.60791016 C6.18326539 159.08702946 6.18991209 157.5661503 6.19691467 156.04527283 C6.21433349 151.90683025 6.22487847 147.76839923 6.2331202 143.62992907 C6.23826767 141.04588017 6.24434346 138.46183489 6.25063133 135.87778854 C6.26968444 127.79720308 6.28391626 119.71662678 6.2922433 111.63602316 C6.30202226 102.30003268 6.32835834 92.96427888 6.36874419 83.62837183 C6.398871 76.41728626 6.41370883 69.20626867 6.41702431 61.99512136 C6.41937842 57.68569343 6.42838546 53.37651832 6.45348549 49.06715775 C6.47671189 45.01400405 6.48102161 40.96127062 6.47072411 36.9080677 C6.47022733 35.41972903 6.47658948 33.93137004 6.49028015 32.44309425 C6.50791338 30.41279231 6.49853565 28.38230908 6.48774719 26.35195923 C6.49013555 25.21522074 6.4925239 24.07848225 6.49498463 22.90729713 C5.88992544 19.35347596 4.78269015 18.21272025 2 16 C1.01 15.505 1.01 15.505 0 15 C0 10.05 0 5.1 0 0 Z " fill="#F9414A" transform="translate(250,121)"/>
<path d="M0 0 C7.26 0 14.52 0 22 0 C22 54.45 22 108.9 22 165 C14.74 165 7.48 165 0 165 C0 152.79 0 140.58 0 128 C-7.59 128 -15.18 128 -23 128 C-23 127.67 -23 127.34 -23 127 C-13.76 126.67 -4.52 126.34 5 126 C5.78047122 122.8781151 6.12926048 120.78882377 6.14717102 117.67358398 C6.15432632 116.81562225 6.16148163 115.95766052 6.16885376 115.07369995 C6.17154266 114.1405899 6.17423157 113.20747986 6.17700195 112.24609375 C6.18357315 111.25707062 6.19014435 110.26804749 6.19691467 109.24905396 C6.21661564 105.97853519 6.22830023 102.70806218 6.23828125 99.4375 C6.24235678 98.32083954 6.2464323 97.20417908 6.25063133 96.05368042 C6.27147362 90.14874456 6.28578602 84.24383185 6.29516602 78.33886719 C6.30625537 72.23198891 6.34068979 66.12547251 6.38033772 60.01872253 C6.40643292 55.32791448 6.4148513 50.63719384 6.41844749 45.94631958 C6.42332808 43.69440249 6.43498361 41.44248968 6.45348549 39.19064331 C6.47773626 36.04476809 6.47693805 32.89984559 6.4699707 29.75390625 C6.48918579 28.35424118 6.48918579 28.35424118 6.50878906 26.92630005 C6.51633368 21.82190246 6.51633368 21.82190246 4.09562683 17.45288086 C2.07386017 15.97773026 2.07386017 15.97773026 0 15 C0 10.05 0 5.1 0 0 Z " fill="#FA414A" transform="translate(475,151)"/>
<path d="M0 0 C7.16252508 4.5999043 11.35117086 10.95683997 14 19 C15.43443955 28.35695951 13.74011313 36.36502849 8.52734375 44.21875 C3.62622295 50.42915366 -2.59646998 53.53215666 -10 56 C-19.68068559 57.10039448 -26.94213509 55.52944395 -35 50 C-41.60125778 44.42348621 -45.21822552 37.40444094 -46.44921875 28.89453125 C-46.9537259 19.51069818 -44.28367347 11.97516793 -38.13671875 4.8359375 C-27.38784797 -5.28824941 -13.01717952 -7.47985444 0 0 Z " fill="#020202" transform="translate(408,350)"/>
<path d="M0 0 C7.16252508 4.5999043 11.35117086 10.95683997 14 19 C15.43443955 28.35695951 13.74011313 36.36502849 8.52734375 44.21875 C3.62622295 50.42915366 -2.59646998 53.53215666 -10 56 C-19.68068559 57.10039448 -26.94213509 55.52944395 -35 50 C-41.60125778 44.42348621 -45.21822552 37.40444094 -46.44921875 28.89453125 C-46.9537259 19.51069818 -44.28367347 11.97516793 -38.13671875 4.8359375 C-27.38784797 -5.28824941 -13.01717952 -7.47985444 0 0 Z " fill="#020202" transform="translate(136,350)"/>
<path d="M0 0 C20.96670253 -0.09267469 41.93335556 -0.16401879 62.90022182 -0.20724869 C72.63594481 -0.22785639 82.37153804 -0.2559427 92.10717773 -0.30175781 C100.594741 -0.34168047 109.08221026 -0.36744584 117.56986481 -0.37635398 C122.06225827 -0.38155954 126.55438286 -0.39375704 131.04668999 -0.42292023 C135.27955863 -0.45017521 139.51204897 -0.45842474 143.74499702 -0.45243073 C145.29413029 -0.45352647 146.84327689 -0.46142028 148.39233398 -0.4768219 C157.85539567 -0.56625283 165.90514573 -0.30213788 173.41015625 6.03515625 C173.95542969 6.70417969 174.50070312 7.37320313 175.0625 8.0625 C175.91521484 9.06990234 175.91521484 9.06990234 176.78515625 10.09765625 C178 12 178 12 178 15 C119.26 15 60.52 15 0 15 C0 10.05 0 5.1 0 0 Z " fill="#FB414A" transform="translate(317,121)"/>
<path d="M0 0 C21.45 0 42.9 0 65 0 C65 12.54 65 25.08 65 38 C49.82 38 34.64 38 19 38 C18.34 35.03 17.68 32.06 17 29 C13.7331722 17.51191361 7.72647896 9.01422545 0 0 Z " fill="#90E7F5" transform="translate(432,331)"/>
<path d="M0 0 C7.26 0 14.52 0 22 0 C22 27.06 22 54.12 22 82 C5 82 5 82 -2 78 C-1.01 77.505 -1.01 77.505 0 77 C0 51.59 0 26.18 0 0 Z " fill="#DDFEFC" transform="translate(445,181)"/>
<path d="M0 0 C25.08 0 50.16 0 76 0 C76 4.95 76 9.9 76 15 C50.92 15 25.84 15 0 15 C0 10.05 0 5.1 0 0 Z " fill="#91E8F6" transform="translate(166,271)"/>
<path d="M0 0 C25.08 0 50.16 0 76 0 C76 4.95 76 9.9 76 15 C50.92 15 25.84 15 0 15 C0 10.05 0 5.1 0 0 Z " fill="#91E8F6" transform="translate(45,271)"/>
<path d="M0 0 C25.08 0 50.16 0 76 0 C76 4.95 76 9.9 76 15 C50.92 15 25.84 15 0 15 C0 10.05 0 5.1 0 0 Z " fill="#7AD2F5" transform="translate(166,241)"/>
<path d="M0 0 C25.08 0 50.16 0 76 0 C76 4.95 76 9.9 76 15 C50.92 15 25.84 15 0 15 C0 10.05 0 5.1 0 0 Z " fill="#7AD2F5" transform="translate(45,241)"/>
<path d="M0 0 C25.08 0 50.16 0 76 0 C76 4.95 76 9.9 76 15 C50.92 15 25.84 15 0 15 C0 10.05 0 5.1 0 0 Z " fill="#91E8F6" transform="translate(166,211)"/>
<path d="M0 0 C25.08 0 50.16 0 76 0 C76 4.95 76 9.9 76 15 C50.92 15 25.84 15 0 15 C0 10.05 0 5.1 0 0 Z " fill="#91E8F6" transform="translate(45,211)"/>
<path d="M0 0 C25.08 0 50.16 0 76 0 C76 4.95 76 9.9 76 15 C50.92 15 25.84 15 0 15 C0 10.05 0 5.1 0 0 Z " fill="#7AD2F5" transform="translate(166,181)"/>
<path d="M0 0 C25.08 0 50.16 0 76 0 C76 4.95 76 9.9 76 15 C50.92 15 25.84 15 0 15 C0 10.05 0 5.1 0 0 Z " fill="#7AD2F5" transform="translate(45,181)"/>
<path d="M0 0 C25.08 0 50.16 0 76 0 C76 4.95 76 9.9 76 15 C50.92 15 25.84 15 0 15 C0 10.05 0 5.1 0 0 Z " fill="#91E8F6" transform="translate(166,151)"/>
<path d="M0 0 C25.08 0 50.16 0 76 0 C76 4.95 76 9.9 76 15 C50.92 15 25.84 15 0 15 C0 10.05 0 5.1 0 0 Z " fill="#91E8F6" transform="translate(45,151)"/>
<path d="M0 0 C1.28813599 -0.00615326 2.57627197 -0.01230652 3.90344238 -0.01864624 C5.30607822 -0.00484941 6.70870698 0.00968464 8.11132812 0.02490234 C9.55334305 0.02728785 10.99536112 0.02819186 12.43737793 0.02767944 C15.45698556 0.03080483 18.4761175 0.04734882 21.49560547 0.07421875 C25.36268665 0.10819852 29.22924545 0.11584715 33.09645844 0.11432838 C36.07335378 0.11487272 39.05013534 0.12585 42.0269928 0.14033127 C43.45271443 0.14668746 44.87844893 0.1506354 46.30418396 0.15211868 C48.29788864 0.15646403 50.29154463 0.17556467 52.28515625 0.1953125 C53.418927 0.2029361 54.55269775 0.21055969 55.7208252 0.21841431 C58.59122976 0.48113997 60.25858573 0.90118659 62.64257812 2.48583984 C64.1674981 5.5356798 63.87820361 8.12817674 63.64257812 11.48583984 C62.09995 13.58942365 60.96149495 14.32638143 58.64257812 15.48583984 C56.60134213 15.59788142 54.55643919 15.64516157 52.51220703 15.6628418 C50.57977646 15.68209465 50.57977646 15.68209465 48.60830688 15.70173645 C47.19525536 15.70990315 45.78219951 15.71734702 44.36914062 15.72412109 C43.65885082 15.72819662 42.94856102 15.73227215 42.21674728 15.73647118 C38.45797771 15.75732954 34.69924462 15.77163278 30.94042969 15.78100586 C27.05746897 15.79207595 23.17508046 15.8264825 19.29232216 15.86617756 C16.30688406 15.89231602 13.32158296 15.90069512 10.3360405 15.90428734 C8.90468858 15.90915978 7.47334304 15.92079263 6.04210281 15.93932533 C4.03878817 15.96365518 2.03519555 15.96033804 0.03173828 15.95581055 C-1.10806488 15.96167679 -2.24786804 15.96754303 -3.42221069 15.97358704 C-7.02349229 15.37515821 -8.19674061 14.38458721 -10.35742188 11.48583984 C-10.91078942 7.612267 -11.10361045 5.48525031 -8.72351074 2.29745483 C-5.64253051 -0.06152248 -3.85698603 -0.00969557 0 0 Z " fill="#FEE96F" transform="translate(380.357421875,90.51416015625)"/>
<path d="M0 0 C4.95 0 9.9 0 15 0 C15 22.44 15 44.88 15 68 C10.05 68 5.1 68 0 68 C0 45.56 0 23.12 0 0 Z " fill="#51526F" transform="translate(287,301)"/>
<path d="M0 0 C7.26 0 14.52 0 22 0 C22 12.54 22 25.08 22 38 C6.82 38 -8.36 38 -24 38 C-24 37.67 -24 37.34 -24 37 C-16.08 37 -8.16 37 0 37 C0 24.79 0 12.58 0 0 Z " fill="#77CDEE" transform="translate(475,331)"/>
<path d="M0 0 C4.36492736 2.40706674 5.93942071 4.83284673 7.8125 9.4375 C8.54520346 14.47483626 7.62027557 18.24512573 5.20703125 22.63671875 C1.9113554 26.89247944 -2.54684459 28.17382324 -7.6875 29 C-12.37661747 28.24639184 -15.64727219 26.60297396 -19.1875 23.4375 C-21.97287223 18.73718437 -22.86540686 14.86075487 -22.1875 9.4375 C-20.44294414 4.504976 -17.73316107 1.40475576 -13.0390625 -0.90234375 C-8.34602817 -2.57559861 -4.45447532 -1.90552555 0 0 Z " fill="#FAFAFA" transform="translate(399.1875,362.5625)"/>
<path d="M0 0 C4.36492736 2.40706674 5.93942071 4.83284673 7.8125 9.4375 C8.54520346 14.47483626 7.62027557 18.24512573 5.20703125 22.63671875 C1.9113554 26.89247944 -2.54684459 28.17382324 -7.6875 29 C-12.37661747 28.24639184 -15.64727219 26.60297396 -19.1875 23.4375 C-21.97287223 18.73718437 -22.86540686 14.86075487 -22.1875 9.4375 C-20.44294414 4.504976 -17.73316107 1.40475576 -13.0390625 -0.90234375 C-8.34602817 -2.57559861 -4.45447532 -1.90552555 0 0 Z " fill="#FAFAFA" transform="translate(127.1875,362.5625)"/>
<path d="M0 0 C16.17 0 32.34 0 49 0 C48.01 4.95 47.02 9.9 46 15 C30.82 15 15.64 15 0 15 C0 10.05 0 5.1 0 0 Z " fill="#8DE1EE" transform="translate(15,354)"/>
<path d="M0 0 C7.59 0 15.18 0 23 0 C23 4.95 23 9.9 23 15 C15.41 15 7.82 15 0 15 C0 10.05 0 5.1 0 0 Z " fill="#64BBF5" transform="translate(219,241)"/>
<path d="M0 0 C7.59 0 15.18 0 23 0 C23 4.95 23 9.9 23 15 C15.41 15 7.82 15 0 15 C0 10.05 0 5.1 0 0 Z " fill="#64BBF5" transform="translate(98,241)"/>
<path d="M0 0 C7.59 0 15.18 0 23 0 C23 4.95 23 9.9 23 15 C15.41 15 7.82 15 0 15 C0 10.05 0 5.1 0 0 Z " fill="#64BBF5" transform="translate(219,181)"/>
<path d="M0 0 C7.59 0 15.18 0 23 0 C23 4.95 23 9.9 23 15 C15.41 15 7.82 15 0 15 C0 10.05 0 5.1 0 0 Z " fill="#64BBF5" transform="translate(98,181)"/>
<path d="M0 0 C7.26 0 14.52 0 22 0 C22 4.95 22 9.9 22 15 C14.74 15 7.48 15 0 15 C0 10.05 0 5.1 0 0 Z " fill="#7AD2F5" transform="translate(220,271)"/>
<path d="M0 0 C7.26 0 14.52 0 22 0 C22 4.95 22 9.9 22 15 C14.74 15 7.48 15 0 15 C0 10.05 0 5.1 0 0 Z " fill="#7AD2F5" transform="translate(99,271)"/>
<path d="M0 0 C7.26 0 14.52 0 22 0 C22 4.95 22 9.9 22 15 C14.74 15 7.48 15 0 15 C0 10.05 0 5.1 0 0 Z " fill="#7AD2F5" transform="translate(220,211)"/>
<path d="M0 0 C7.26 0 14.52 0 22 0 C22 4.95 22 9.9 22 15 C14.74 15 7.48 15 0 15 C0 10.05 0 5.1 0 0 Z " fill="#7AD2F5" transform="translate(99,211)"/>
<path d="M0 0 C7.26 0 14.52 0 22 0 C22 4.95 22 9.9 22 15 C14.74 15 7.48 15 0 15 C0 10.05 0 5.1 0 0 Z " fill="#7AD2F5" transform="translate(220,151)"/>
<path d="M0 0 C7.26 0 14.52 0 22 0 C22 4.95 22 9.9 22 15 C14.74 15 7.48 15 0 15 C0 10.05 0 5.1 0 0 Z " fill="#7AD2F5" transform="translate(99,151)"/>
<path d="M0 0 C3.08325358 -0.0582253 6.16636505 -0.09367134 9.25 -0.125 C10.55904297 -0.15013672 10.55904297 -0.15013672 11.89453125 -0.17578125 C12.73886719 -0.18222656 13.58320313 -0.18867187 14.453125 -0.1953125 C15.22817383 -0.20578613 16.00322266 -0.21625977 16.80175781 -0.22705078 C19.29907849 0.03089105 20.87839667 0.67239594 23 2 C24.52491998 5.04983996 24.23562548 7.6423369 24 11 C22.45737187 13.10358381 21.31891683 13.84054159 19 15 C17.55151418 15.08342159 16.09929131 15.10732861 14.6484375 15.09765625 C13.79765625 15.09443359 12.946875 15.09121094 12.0703125 15.08789062 C11.18085938 15.07951172 10.29140625 15.07113281 9.375 15.0625 C8.02921875 15.05573242 8.02921875 15.05573242 6.65625 15.04882812 C4.43743352 15.03702591 2.21874982 15.02056155 0 15 C0.33 14.01 0.66 13.02 1 12 C1.13708847 7.68171307 1.09407204 4.1671433 0 0 Z " fill="#FDCE71" transform="translate(420,91)"/>
<path d="M0 0 C16.22850452 -0.83104717 16.22850452 -0.83104717 23 4 C25.65278896 6.45062475 28.05206551 8.94969744 30 12 C30 12.99 30 13.98 30 15 C22.74 15 15.48 15 8 15 C7.01 12.36 6.02 9.72 5 7 C3.7050184 4.73888226 3.7050184 4.73888226 2.3125 3 C1.1678125 1.515 1.1678125 1.515 0 0 Z " fill="#E22B35" transform="translate(465,121)"/>
</svg>
