<?xml version="1.0" encoding="UTF-8"?>
<svg version="1.1" xmlns="http://www.w3.org/2000/svg" width="512" height="512">
<path d="M0 0 C1.42966272 -0.00489346 2.85932148 -0.01108536 4.28897357 -0.01845789 C8.20413736 -0.03482326 12.11909932 -0.03254645 16.03428531 -0.02708292 C20.26211424 -0.02440848 24.48988988 -0.03895237 28.71769714 -0.05117798 C36.99580219 -0.07221744 45.27383718 -0.07677365 53.5519658 -0.07499009 C60.28270702 -0.0736816 67.01342641 -0.07749109 73.74416351 -0.08491516 C75.68422595 -0.0870144 77.6242884 -0.089112 79.56435084 -0.09120798 C80.53003555 -0.09225151 81.49572026 -0.09329504 82.49066815 -0.09437019 C100.74892725 -0.11326694 119.00714616 -0.11222423 137.26541099 -0.10540086 C153.95666333 -0.09982714 170.6477621 -0.12064457 187.33897856 -0.15376133 C204.48837118 -0.1875223 221.6376903 -0.20266357 238.78711677 -0.1980443 C248.4108105 -0.19580188 258.03436235 -0.20100942 267.65802765 -0.22593689 C275.85217464 -0.24698122 284.04610195 -0.25051108 292.24025807 -0.2316373 C296.41804715 -0.22249831 300.59542697 -0.22127958 304.77318382 -0.24199295 C308.60412465 -0.26077607 312.43432314 -0.25611854 316.26523635 -0.23344713 C318.29400944 -0.22731831 320.322812 -0.24559456 322.3515017 -0.26498365 C334.73937958 -0.14586382 344.940619 3.7836175 353.94525146 12.39440918 C361.26425811 20.40110772 365.07819377 29.47848625 365.05877686 40.27429199 C365.05892288 40.95762604 365.05906891 41.64096008 365.05921936 42.34500122 C365.05852462 44.59587822 365.05075279 46.8466717 365.04290771 49.09753418 C365.04104198 50.66123408 365.03961881 52.22493456 365.03862 53.78863525 C365.03480708 57.89857607 365.02498726 62.00848139 365.01391602 66.1184082 C365.00367554 70.31457031 364.99911673 74.51073817 364.99407959 78.70690918 C364.98336389 86.93609211 364.96630219 95.16524623 364.94525146 103.39440918 C365.73051208 103.44507034 366.51577271 103.49573151 367.3248291 103.54792786 C375.33229839 104.10808288 383.21547789 105.03578361 391.14837646 106.24987793 C392.95323517 106.52605705 392.95323517 106.52605705 394.79455566 106.80781555 C397.31597539 107.19724301 399.83690864 107.58983254 402.35736084 107.98547363 C404.92160763 108.38397585 407.48740693 108.77261001 410.05462646 109.15148926 C413.79791772 109.70414992 417.53560177 110.28619207 421.27337646 110.87487793 C422.41107483 111.03763718 423.54877319 111.20039642 424.72094727 111.36808777 C432.40195921 112.62512603 439.32507141 114.84128307 444.34301758 121.15238953 C447.60857373 126.49858721 448.07125966 131.52438343 448.05877686 137.65344238 C448.05870132 138.89435135 448.05862579 140.13526031 448.05854797 141.41377258 C448.05344218 142.75757895 448.0482262 144.10138489 448.04290771 145.44519043 C448.04104112 146.82809905 448.03961836 148.21100833 448.03862 149.59391785 C448.03481383 153.22215624 448.02499989 156.85035418 448.01391602 160.47857666 C448.00366092 164.18554131 447.99911361 167.89251254 447.99407959 171.5994873 C447.98337582 178.86447964 447.96632237 186.12943873 447.94525146 193.39440918 C449.36837646 193.54909668 449.36837646 193.54909668 450.82025146 193.70690918 C453.94525146 194.39440918 453.94525146 194.39440918 455.94525146 197.39440918 C456.20594788 199.51928711 456.20594788 199.51928711 456.21990967 202.00183105 C456.22944168 202.93289673 456.23897369 203.8639624 456.24879456 204.82324219 C456.24742744 206.3280011 456.24742744 206.3280011 456.24603271 207.86315918 C456.25031784 208.89501343 456.25460297 209.92686768 456.25901794 210.98999023 C456.26476232 213.17215236 456.26526072 215.35433364 456.26092529 217.53649902 C456.25776377 220.88139355 456.28122912 224.2254052 456.30657959 227.57019043 C456.30885235 229.68867889 456.30955619 231.80716974 456.30853271 233.92565918 C456.31774246 234.92883179 456.32695221 235.93200439 456.33644104 236.96557617 C456.32709785 238.36217468 456.32709785 238.36217468 456.31756592 239.7869873 C456.31819534 240.60622681 456.31882477 241.42546631 456.31947327 242.26953125 C455.85198436 244.9239914 455.06377111 245.77195959 452.94525146 247.39440918 C449.89761212 248.41028896 447.5980618 248.59245324 444.40228271 248.71081543 C442.79256592 248.77365723 442.79256592 248.77365723 441.15032959 248.83776855 C440.03077881 248.87708496 438.91122803 248.91640137 437.75775146 248.95690918 C436.62659912 249.00009277 435.49544678 249.04327637 434.33001709 249.08776855 C431.53521792 249.19390017 428.74032984 249.29595303 425.94525146 249.39440918 C425.84317383 250.26927979 425.74109619 251.14415039 425.63592529 252.04553223 C423.71096778 267.81924797 416.83894979 281.14966058 404.55462646 291.38659668 C392.86970649 299.94818899 379.39727491 303.74506558 364.94525146 302.39440918 C349.55194322 299.96879697 337.20913109 293.37616312 327.16009521 281.23815918 C320.03187691 271.17479215 317.82890607 261.63816414 315.94525146 249.39440918 C248.95525146 249.06440918 181.96525146 248.73440918 112.94525146 248.39440918 C112.61525146 252.35440918 112.28525146 256.31440918 111.94525146 260.39440918 C108.05463286 275.07335666 99.15403849 287.11679343 86.32025146 295.20690918 C72.40995602 302.80719767 57.47606581 304.44132255 42.21087646 300.49597168 C26.07508558 295.05303743 15.956177 284.92044428 7.94525146 270.39440918 C6.64511975 267.42874926 5.67198389 264.54584699 4.94525146 261.39440918 C4.71837646 260.54878418 4.49150146 259.70315918 4.25775146 258.83190918 C3.81058647 255.34402225 3.92740155 251.91084212 3.94525146 248.39440918 C2.94713188 248.40440193 2.94713188 248.40440193 1.92884827 248.41459656 C-4.99784513 248.48097597 -11.92444813 248.52622081 -18.85137939 248.5592041 C-21.43637767 248.5742888 -24.02135036 248.59475919 -26.60626221 248.62072754 C-30.32222814 248.65712359 -34.03785561 248.67413903 -37.75396729 248.68737793 C-38.90934494 248.70286179 -40.0647226 248.71834564 -41.25511169 248.73429871 C-42.87622612 248.7346386 -42.87622612 248.7346386 -44.53009033 248.73498535 C-45.95239204 248.7449781 -45.95239204 248.7449781 -47.40342712 248.75517273 C-50.66765176 248.31101184 -52.49967057 247.47383317 -55.05474854 245.39440918 C-55.6762085 243.14891052 -55.6762085 243.14891052 -55.66998291 240.49572754 C-55.67928833 239.50137192 -55.68859375 238.5070163 -55.69818115 237.48252869 C-55.68178589 236.41059769 -55.66539063 235.33866669 -55.64849854 234.23425293 C-55.64855896 232.58303185 -55.64855896 232.58303185 -55.64862061 230.89845276 C-55.64325717 228.57079358 -55.62563963 226.24313537 -55.59674072 223.91564941 C-55.55486976 220.34225479 -55.55567122 216.77074214 -55.56256104 213.19714355 C-55.55206986 210.93866685 -55.53913215 208.6801999 -55.52349854 206.42175293 C-55.52329712 205.3477977 -55.5230957 204.27384247 -55.52288818 203.16734314 C-55.50697632 202.17613968 -55.49106445 201.18493622 -55.47467041 200.16369629 C-55.46625122 199.2889415 -55.45783203 198.41418671 -55.44915771 197.51292419 C-55.31900269 196.81381424 -55.18884766 196.11470428 -55.05474854 195.39440918 C-51.61954374 193.10427265 -50.06941754 193.21597945 -46.05474854 193.39440918 C-46.05843571 192.58602726 -46.06212288 191.77764534 -46.06592178 190.944767 C-46.15441791 171.23757829 -46.2205286 151.53042403 -46.26199722 131.82307816 C-46.2825863 122.29258316 -46.31063671 112.76222114 -46.35650635 103.23181152 C-46.39648635 94.9211104 -46.42220789 86.61050562 -46.43110251 78.29971099 C-46.43629843 73.90279312 -46.44843376 69.50615079 -46.47766876 65.10932159 C-46.50501471 60.96262305 -46.51315523 56.81631102 -46.50717926 52.66953087 C-46.50827099 51.15552094 -46.51611006 49.64149677 -46.53157043 48.12756538 C-46.64361248 36.58017574 -45.45292774 25.75092994 -38.05474854 16.39440918 C-37.64740479 15.83366699 -37.24006104 15.2729248 -36.82037354 14.69519043 C-27.52739426 2.66130435 -14.3691701 -0.05805684 0 0 Z " fill="#FECE5D" transform="translate(55.05474853515625,105.6055908203125)"/>
<path d="M0 0 C0.86062042 -0.00861557 1.72124084 -0.01723114 2.60794067 -0.02610779 C5.45190536 -0.04880443 8.29488756 -0.04202192 11.13891602 -0.03295898 C13.11662591 -0.03819318 15.0943333 -0.04446891 17.07203674 -0.05174255 C21.21725204 -0.06215378 25.36212422 -0.05757525 29.50732422 -0.04296875 C34.81842948 -0.02578564 40.12845245 -0.04926669 45.43943691 -0.08445835 C49.52386133 -0.10642418 53.6080265 -0.10499274 57.69249153 -0.09669304 C59.65050506 -0.09587296 61.60853751 -0.10274712 63.5664959 -0.11746407 C66.30542272 -0.13489363 69.0424014 -0.1203811 71.78125 -0.09765625 C72.58920517 -0.10934845 73.39716034 -0.12104065 74.229599 -0.13308716 C74.97955139 -0.1204332 75.72950378 -0.10777924 76.50218201 -0.09474182 C77.47195055 -0.09386236 77.47195055 -0.09386236 78.46131039 -0.09296513 C81.79496189 0.95429073 83.32166837 2.82605071 85.45532227 5.53344727 C86.07056141 8.83487415 86.07056141 8.83487415 86.05659485 12.664505 C86.06086697 13.37114814 86.0651391 14.07779127 86.06954068 14.80584782 C86.07776078 17.16792739 86.05030521 19.52822149 86.02294922 21.89013672 C86.02153852 23.58543353 86.02233115 25.2807334 86.02516174 26.97602844 C86.02659647 31.57502705 85.99719774 36.17337376 85.96229196 40.77222085 C85.93103776 45.57949281 85.92809845 50.38677969 85.92216492 55.19413757 C85.90662372 64.29601881 85.86559149 73.3975998 85.81541747 82.49934882 C85.75953262 92.86198212 85.73203966 103.22462976 85.70694029 113.58737624 C85.65467591 134.90290083 85.56672821 156.21815513 85.45532227 177.53344727 C90.04632741 177.56362611 94.63410376 177.54791479 99.22485352 177.49072266 C100.784369 177.47762971 102.34403989 177.47680597 103.90356445 177.48876953 C112.73345456 177.86715313 112.73345456 177.86715313 120.75727844 174.99221802 C122.24281105 173.23911988 123.32668441 171.52576873 124.45532227 169.53344727 C137.51876137 158.21310573 151.35701608 153.39844193 168.45532227 154.53344727 C183.06693232 156.41550477 196.1054274 163.50315894 205.42016602 174.94750977 C210.07165377 181.30028163 213.59606081 187.86673973 215.45532227 195.53344727 C215.45943115 194.46908447 215.46354004 193.40472168 215.46777344 192.30810547 C215.48959674 188.34733093 215.54391832 184.38754532 215.60791016 180.42724609 C215.63106252 178.71542868 215.64547942 177.00346937 215.65087891 175.29150391 C215.6601893 172.82568228 215.70122006 170.36208352 215.74829102 167.89672852 C215.74435837 167.13507889 215.74042572 166.37342926 215.7363739 165.58869934 C215.84285458 161.68374352 216.32254643 159.71174624 218.67700195 156.55004883 C221.67694096 154.37258871 222.96952989 153.90150244 226.61547852 153.90454102 C227.57389648 153.90260742 228.53231445 153.90067383 229.51977539 153.89868164 C230.50913086 153.9225293 231.49848633 153.94637695 232.51782227 153.97094727 C233.51104492 153.95999023 234.50426758 153.9490332 235.52758789 153.93774414 C242.58451518 154.00902623 242.58451518 154.00902623 245.73852539 155.90844727 C248.46512433 160.07744496 248.00628656 164.22522942 247.95141602 169.09985352 C247.95287125 170.13029282 247.95432648 171.16073212 247.95582581 172.22239685 C247.95416711 174.39861888 247.94260917 176.57485268 247.921875 178.75097656 C247.89289846 182.08717481 247.90127145 185.42178649 247.91430664 188.75805664 C247.90806994 190.87199667 247.89967954 192.98593168 247.88891602 195.09985352 C247.89185165 196.09988907 247.89478729 197.09992462 247.89781189 198.13026428 C247.88512772 199.05810226 247.87244354 199.98594025 247.859375 200.94189453 C247.85397202 201.75811783 247.84856903 202.57434113 247.84300232 203.41529846 C247.35936917 206.05770155 246.56574998 206.91400682 244.45532227 208.53344727 C241.40768292 209.54932705 239.1081326 209.73149133 235.91235352 209.84985352 C234.30263672 209.91269531 234.30263672 209.91269531 232.66040039 209.97680664 C231.54084961 210.01612305 230.42129883 210.05543945 229.26782227 210.09594727 C228.13666992 210.13913086 227.00551758 210.18231445 225.84008789 210.22680664 C223.04528872 210.33293825 220.25040064 210.43499111 217.45532227 210.53344727 C217.35324463 211.40831787 217.25116699 212.28318848 217.14599609 213.18457031 C215.22103858 228.95828605 208.34902059 242.28869866 196.06469727 252.52563477 C184.37977729 261.08722707 170.90734571 264.88410366 156.45532227 263.53344727 C141.06201402 261.10783506 128.71920189 254.51520121 118.67016602 242.37719727 C111.54194771 232.31383024 109.33897687 222.77720222 107.45532227 210.53344727 C40.46532227 210.20344727 -26.52467773 209.87344727 -95.54467773 209.53344727 C-95.87467773 213.49344727 -96.20467773 217.45344727 -96.54467773 221.53344727 C-100.43529634 236.21239475 -109.33589071 248.25583152 -122.16967773 256.34594727 C-136.07997318 263.94623575 -151.01386339 265.58036064 -166.27905273 261.63500977 C-182.50943767 256.160167 -192.36061419 246.01560623 -200.54467773 231.53344727 C-202.48989335 227.33812329 -202.72655645 224.17135441 -202.54467773 219.53344727 C-195.64301951 215.52706672 -188.29551819 215.35360338 -180.54467773 216.53344727 C-173.83538389 218.73457974 -168.15054576 222.26842618 -163.14233398 227.23657227 C-158.53457288 230.97685756 -153.37353132 231.02053059 -147.68530273 230.90844727 C-141.87760538 230.21499086 -136.94365105 228.00980681 -132.84936523 223.78344727 C-127.7810081 217.06425381 -127.66714 209.68479774 -128.54467773 201.53344727 C-129.77324084 198.44729676 -131.41782331 196.06860899 -133.54467773 193.53344727 C-141.14511281 184.32079869 -143.14482042 176.42198799 -142.54467773 164.53344727 C-141.48890084 158.47767037 -141.48890084 158.47767037 -139.54467773 156.53344727 C-127.33761521 156.7637692 -118.25158904 164.03508425 -109.84545898 172.14282227 C-107.54467773 174.53344727 -107.54467773 174.53344727 -106.54467773 176.53344727 C-60.01467773 177.02844727 -60.01467773 177.02844727 -12.54467773 177.53344727 C-12.59108398 165.09141602 -12.63749023 152.64938477 -12.68530273 139.83032227 C-12.70573243 131.96443355 -12.72515288 124.09856397 -12.73999023 116.23266602 C-12.76374772 103.7379705 -12.79171389 91.24338269 -12.84643555 78.7487793 C-12.88626574 69.65001956 -12.91210162 60.55134698 -12.92103171 51.45250249 C-12.92625294 46.63331264 -12.93855014 41.81437218 -12.96759796 36.99526215 C-12.99470678 32.46119092 -13.00313194 27.92747229 -12.99710846 23.39332771 C-12.99821073 21.72760414 -13.00619168 20.06186903 -13.02149963 18.39621544 C-13.04135743 16.12444608 -13.03663344 13.85401366 -13.0256958 11.58221436 C-13.02938297 10.31014004 -13.03307014 9.03806572 -13.03686905 7.7274437 C-12.54467773 4.53344727 -12.54467773 4.53344727 -10.75374889 2.1250658 C-7.39235461 -0.29679255 -3.98863307 -0.0321358 0 0 Z " fill="#FD983C" transform="translate(263.544677734375,144.466552734375)"/>
<path d="M0 0 C1.43762695 -0.00290039 1.43762695 -0.00290039 2.90429688 -0.00585938 C3.89365234 0.01798828 4.88300781 0.04183594 5.90234375 0.06640625 C6.89556641 0.05544922 7.88878906 0.04449219 8.91210938 0.03320312 C15.96903667 0.10448522 15.96903667 0.10448522 19.12304688 2.00390625 C21.84964582 6.17290395 21.39080804 10.3206884 21.3359375 15.1953125 C21.33739273 16.2257518 21.33884796 17.2561911 21.34034729 18.31785583 C21.33868859 20.49407787 21.32713066 22.67031166 21.30639648 24.84643555 C21.27741994 28.18263379 21.28579294 31.51724547 21.29882812 34.85351562 C21.29259143 36.96745566 21.28420103 39.08139067 21.2734375 41.1953125 C21.27637314 42.19534805 21.27930878 43.19538361 21.28233337 44.22572327 C21.2696492 45.15356125 21.25696503 46.08139923 21.24389648 47.03735352 C21.23579201 48.26168846 21.23579201 48.26168846 21.2275238 49.51075745 C20.74389066 52.15316054 19.95027146 53.00946581 17.83984375 54.62890625 C14.79220441 55.64478603 12.49265408 55.82695031 9.296875 55.9453125 C8.22373047 55.98720703 7.15058594 56.02910156 6.04492188 56.07226562 C4.92537109 56.11158203 3.80582031 56.15089844 2.65234375 56.19140625 C1.52119141 56.23458984 0.39003906 56.27777344 -0.77539062 56.32226562 C-3.57018979 56.42839724 -6.36507787 56.5304501 -9.16015625 56.62890625 C-9.26223389 57.50377686 -9.36431152 58.37864746 -9.46948242 59.2800293 C-11.39443993 75.05374504 -18.26645793 88.38415765 -30.55078125 98.62109375 C-42.23570122 107.18268606 -55.7081328 110.97956265 -70.16015625 109.62890625 C-85.5534645 107.20329404 -97.89627663 100.61066019 -107.9453125 88.47265625 C-112.59429487 81.90938703 -117.16015625 73.77020034 -117.16015625 65.62890625 C-109.88509523 61.47172853 -101.57190755 61.54655599 -93.46484375 63.16796875 C-88.83914857 64.59487811 -84.94803236 66.61803037 -81.16015625 69.62890625 C-81.16015625 70.28890625 -81.16015625 70.94890625 -81.16015625 71.62890625 C-80.62390625 71.89703125 -80.08765625 72.16515625 -79.53515625 72.44140625 C-77.16015625 73.62890625 -77.16015625 73.62890625 -74.72265625 75.25390625 C-68.68060919 77.58592441 -62.01653273 77.67894069 -55.75 75.97265625 C-49.97680461 73.39196005 -45.7506428 68.93558791 -43.0234375 63.265625 C-41.22745903 57.7801704 -41.09551295 51.6279684 -43.03515625 46.1640625 C-45.64222843 41.28437806 -49.07138584 37.00570453 -52.609375 32.76953125 C-56.0800101 27.9788309 -56.49972053 23.54566204 -56.47265625 17.75390625 C-56.48876953 17.07199219 -56.50488281 16.39007813 -56.52148438 15.6875 C-56.52628999 10.64160382 -55.39643275 7.14866298 -53.16015625 2.62890625 C-42.39111087 2.840064 -32.78408922 9.21489748 -25.15625 16.46484375 C-18.46542101 23.71869749 -13.49215661 32.01284892 -11.16015625 41.62890625 C-11.15604736 40.56454346 -11.15193848 39.50018066 -11.14770508 38.40356445 C-11.12588177 34.44278991 -11.07156019 30.4830043 -11.00756836 26.52270508 C-10.984416 24.81088766 -10.9699991 23.09892835 -10.96459961 21.38696289 C-10.95528922 18.92114127 -10.91425846 16.45754251 -10.8671875 13.9921875 C-10.87112015 13.23053787 -10.8750528 12.46888824 -10.87910461 11.68415833 C-10.77262393 7.7792025 -10.29293208 5.80720522 -7.93847656 2.64550781 C-4.93853756 0.46804769 -3.64594862 -0.00303857 0 0 Z " fill="#36414A" transform="translate(490.16015625,298.37109375)"/>
<path d="M0 0 C24.75 0 49.5 0 75 0 C75 27.39 75 54.78 75 83 C50.25 83 25.5 83 0 83 C0 55.61 0 28.22 0 0 Z " fill="#02D3D7" transform="translate(153,152)"/>
<path d="M0 0 C8.58 0 17.16 0 26 0 C26 36.63 26 73.26 26 111 C30.95 111 35.9 111 41 111 C41 74.7 41 38.4 41 1 C49.91 1 58.82 1 68 1 C68 37.3 68 73.6 68 111 C70.31 111 72.62 111 75 111 C75 111.33 75 111.66 75 112 C47.61 112 20.22 112 -8 112 C-8 111.67 -8 111.34 -8 111 C-5.36 111 -2.72 111 0 111 C0 74.37 0 37.74 0 0 Z " fill="#8BEDE1" transform="translate(266,242)"/>
<path d="M0 0 C22.44 0 44.88 0 68 0 C68 27.39 68 54.78 68 83 C45.56 83 23.12 83 0 83 C0 55.61 0 28.22 0 0 Z " fill="#04D3D6" transform="translate(70,152)"/>
<path d="M0 0 C23.01471592 -1.32751024 44.99354784 0.68885547 67.75 4.3125 C69.67486237 4.61617996 69.67486237 4.61617996 71.63861084 4.92599487 C75.33963102 5.51626597 79.03753294 6.12242053 82.734375 6.73828125 C83.83933319 6.91970673 84.94429138 7.1011322 86.08273315 7.28805542 C103.4435219 10.28476538 103.4435219 10.28476538 109 16 C113.16917149 21.92163679 114.12802484 27.13980371 114.11352539 34.2590332 C114.11341209 36.12039665 114.11341209 36.12039665 114.11329651 38.0193634 C114.10819072 39.36316977 114.10297474 40.70697571 114.09765625 42.05078125 C114.09578965 43.43368987 114.09436689 44.81659915 114.09336853 46.19950867 C114.08956237 49.82774706 114.07974843 53.455945 114.06866455 57.08416748 C114.05840945 60.79113213 114.05386215 64.49810336 114.04882812 68.20507812 C114.03812435 75.47007046 114.0210709 82.73502955 114 90 C112.73542969 90.06058594 111.47085938 90.12117188 110.16796875 90.18359375 C108.50780129 90.26800904 106.84764563 90.35265655 105.1875 90.4375 C104.35412109 90.47681641 103.52074219 90.51613281 102.66210938 90.55664062 C101.85966797 90.59853516 101.05722656 90.64042969 100.23046875 90.68359375 C99.49207764 90.72025146 98.75368652 90.75690918 97.99291992 90.79467773 C95.792505 90.94842141 95.792505 90.94842141 93 92 C91.69079497 95.9276151 91.76537132 99.72570631 91.68359375 103.82421875 C91.6524221 105.11632011 91.6524221 105.11632011 91.62062073 106.43452454 C91.55525091 109.18543544 91.49629868 111.93644156 91.4375 114.6875 C91.39430283 116.55274421 91.35068815 118.4179788 91.30664062 120.28320312 C91.19958237 124.85537124 91.09827946 129.4276351 91 134 C88.64882176 130.47323263 87.53897188 126.98147938 86.1953125 122.984375 C85.05223935 119.86178449 85.05223935 119.86178449 82.94793701 116.78770447 C80.73581765 112.94532487 80.54618361 109.87354905 80.63769531 105.41235352 C80.64686478 104.68956711 80.65603424 103.9667807 80.66548157 103.22209167 C80.70027344 100.8569041 80.76395628 98.49346326 80.828125 96.12890625 C80.85805452 94.47984418 80.88616432 92.83074816 80.91253662 91.18162537 C80.98651829 86.85915983 81.08508697 82.53759741 81.18890381 78.21575928 C81.29062127 73.7984169 81.36891374 69.38066496 81.44921875 64.96289062 C81.60997766 56.30802435 81.79673146 47.65397178 82 39 C80.67881165 38.90361488 80.67881165 38.90361488 79.33093262 38.80528259 C78.16920532 38.71863846 77.00747803 38.63199432 75.81054688 38.54272461 C74.66162964 38.45784286 73.5127124 38.37296112 72.32897949 38.2855072 C68.01094355 37.91517438 63.77014647 37.28854929 59.5 36.5625 C57.85811997 36.29268226 56.21619274 36.02315161 54.57421875 35.75390625 C53.79095215 35.62387207 53.00768555 35.49383789 52.20068359 35.35986328 C49.24239463 34.87611379 46.27781572 34.43835102 43.3125 34 C41.20825126 33.66718515 39.10408922 33.33382185 37 33 C36.35933594 32.90783203 35.71867187 32.81566406 35.05859375 32.72070312 C23.02360793 30.97368905 13.41245581 28.00898802 5.47265625 18.2109375 C1.55016866 12.32200388 -0.09717268 7.03143945 0 0 Z " fill="#FE993B" transform="translate(389,209)"/>
<path d="M0 0 C11.86556421 0.22387857 21.24842533 7.16644286 29.37109375 15.21875 C40.40697866 26.8941587 44.31778356 41.17118535 44.09814453 56.94335938 C43.36303129 72.34782192 34.80043154 84.83728089 23.84375 95 C12.23242874 104.76024106 -2.14802151 108.06085561 -17 107 C-30.31253192 105.24835106 -43.08257349 99.20531809 -52 89 C-57.96512957 80.9748837 -63.40444811 73.3134268 -63 63 C-56.09834177 58.99361945 -48.75084046 58.82015611 -41 60 C-34.29070616 62.20113248 -28.60586803 65.73497892 -23.59765625 70.703125 C-18.98989514 74.4434103 -13.82885359 74.48708332 -8.140625 74.375 C-2.33292764 73.6815436 2.60102669 71.47635955 6.6953125 67.25 C11.76366963 60.53080654 11.87753773 53.15135047 11 45 C9.7714369 41.91384949 8.12685443 39.53516172 6 37 C-1.60043507 27.78735143 -3.60014268 19.88854073 -3 8 C-1.94422311 1.94422311 -1.94422311 1.94422311 0 0 Z " fill="#36414B" transform="translate(124,301)"/>
<path d="M0 0 C-0.495 0.99 -0.99 1.98 -1.5 3 C-4.1292337 10.0448367 -4.25566287 19.22399659 -2.34375 26.49609375 C-0.19191313 31.10584774 3.24335678 34.95767091 6.3828125 38.92578125 C11.37656208 45.33080789 11.9098624 51.06223497 11 59 C9.21193474 65.64620484 4.5608085 70.16853046 -1 74 C-6.78588354 76.84520346 -12.69250181 76.85414038 -19 76 C-24.04709003 73.91676102 -27.95393298 71.56910053 -31 67 C-33.0385187 65.80963234 -33.0385187 65.80963234 -35.375 64.875 C-36.14585937 64.54242188 -36.91671875 64.20984375 -37.7109375 63.8671875 C-42.22632954 62.15657823 -46.08388947 61.83839974 -50.9375 61.8125 C-52.14277344 61.79832031 -53.34804688 61.78414063 -54.58984375 61.76953125 C-57.8900619 61.99257005 -60.00956861 62.68421019 -63 64 C-63.99 64 -64.98 64 -66 64 C-68.30529517 50.47975538 -65.79853754 35.95655112 -58.29296875 24.36328125 C-55.18148314 20.26208562 -51.78072368 16.49716941 -48 13 C-47.30390625 12.29617188 -47.30390625 12.29617188 -46.59375 11.578125 C-34.02787385 -0.37177683 -16.49640639 -3.1338158 0 0 Z " fill="#5A6774" transform="translate(438,300)"/>
<path d="M0 0 C1.92972656 -0.00386719 1.92972656 -0.00386719 3.8984375 -0.0078125 C7.2424251 0.11136526 10.34597949 0.48543872 13.625 1.125 C13.150625 1.681875 12.67625 2.23875 12.1875 2.8125 C8.33957335 8.50743144 9.05453499 16.53730128 9.625 23.125 C11.52541726 29.77153707 15.43491346 35.41959898 19.75 40.75 C24.54001485 46.81735215 24.2225833 52.5954504 23.625 60.125 C22.29609981 65.66370077 19.26071021 70.30951081 14.56640625 73.54296875 C8.01067289 77.28760365 2.09058748 78.22986564 -5.375 77.125 C-9.96147644 75.72639815 -13.28181069 73.30100819 -16.8125 70.125 C-24.42781844 63.42759941 -31.82216434 62.569566 -41.703125 62.7890625 C-45.09765717 63.09962608 -47.39834592 63.50630855 -50.375 65.125 C-51.035 66.115 -51.695 67.105 -52.375 68.125 C-55.766238 53.95837675 -52.97739504 39.88834982 -46.29296875 27.1796875 C-38.02780548 14.01602624 -26.21464494 5.59853964 -11.375 1.125 C-10.76269531 0.9290625 -10.15039062 0.733125 -9.51953125 0.53125 C-6.33801129 -0.07144231 -3.23439398 -0.00645588 0 0 Z " fill="#5A6774" transform="translate(112.375,298.875)"/>
<path d="M0 0 C15.18 0 30.36 0 46 0 C46 27.39 46 54.78 46 83 C30.82 83 15.64 83 0 83 C0 55.61 0 28.22 0 0 Z " fill="#01D3D7" transform="translate(9,152)"/>
<path d="M0 0 C8.25 0 16.5 0 25 0 C25 36.3 25 72.6 25 110 C16.75 110 8.5 110 0 110 C0 73.7 0 37.4 0 0 Z " fill="#00D3D8" transform="translate(308,243)"/>
<path d="M0 0 C15.84 0 31.68 0 48 0 C48 18.81 48 37.62 48 57 C32.16 57 16.32 57 0 57 C0 38.19 0 19.38 0 0 Z " fill="#02D2D6" transform="translate(372,152)"/>
<path d="M0 0 C14.52 0 29.04 0 44 0 C44 17.16 44 34.32 44 52 C29.81 52 15.62 52 1 52 C1 62.23 1 72.46 1 83 C0.67 83 0.34 83 0 83 C0 55.61 0 28.22 0 0 Z " fill="#89F6EF" transform="translate(70,152)"/>
<path d="M0 0 C14.52 0 29.04 0 44 0 C44 17.16 44 34.32 44 52 C29.48 52 14.96 52 0 52 C0 34.84 0 17.68 0 0 Z " fill="#86F7F2" transform="translate(153,152)"/>
<path d="M0 0 C8.58 0 17.16 0 26 0 C26 22.11 26 44.22 26 67 C17.42 67 8.84 67 0 67 C0 44.89 0 22.78 0 0 Z " fill="#88F6F1" transform="translate(266,160)"/>
<path d="M0 0 C4.35175651 2.42143192 6.91076621 4.75197104 9.6875 8.875 C10.285625 9.74125 10.88375 10.6075 11.5 11.5 C13.72126247 17.81306175 13.91152959 24.97671255 11.1875 31.1875 C7.70231642 37.12843571 2.2530697 41.79038291 -4.3125 43.875 C-12.36501918 44.97259108 -18.54262944 44.23420987 -25.28515625 39.58984375 C-30.03934931 35.56847428 -32.86769521 30.22742345 -33.68359375 24.078125 C-33.86621374 15.95690678 -32.42732089 10.38547674 -26.890625 4.31640625 C-19.01053669 -2.8222759 -9.53863593 -4.4002636 0 0 Z " fill="#E7E1D3" transform="translate(436.3125,332.125)"/>
<path d="M0 0 C5.78295876 3.20063126 10.29166853 7.73049114 12.75 13.9375 C13.64865795 22.86572511 12.72300227 28.94285619 8.1875 36.5625 C2.8893509 41.72479912 -2.97892947 44.23786079 -10.375 44.5 C-17.69759066 44.1432584 -22.59717753 42.01522781 -27.5625 36.625 C-31.98592603 30.93601611 -33.84175995 25.61377473 -33.6015625 18.4296875 C-32.67968631 11.89460961 -29.19286777 7.1742438 -24.25 2.9375 C-16.43616697 -2.68845978 -8.94938596 -4.12944435 0 0 Z " fill="#E7E1D3" transform="translate(123.25,332.0625)"/>
<path d="M0 0 C8.25 0 16.5 0 25 0 C25 22.11 25 44.22 25 67 C16.75 67 8.5 67 0 67 C0 44.89 0 22.78 0 0 Z " fill="#00D2D7" transform="translate(308,160)"/>
<path d="M0 0 C0.99386719 -0.03287109 1.98773438 -0.06574219 3.01171875 -0.09960938 C4.45611328 -0.11024414 4.45611328 -0.11024414 5.9296875 -0.12109375 C6.80608887 -0.13454834 7.68249023 -0.14800293 8.58544922 -0.16186523 C12.51438181 0.7654112 13.8151784 2.12270787 16.125 5.4375 C16.80562127 9.18147689 16.70689434 12.85012339 16.61328125 16.64453125 C16.60620651 17.72506271 16.59913177 18.80559418 16.59184265 19.91886902 C16.56389847 23.36328945 16.50115633 26.80607255 16.4375 30.25 C16.41241733 32.58786712 16.38960411 34.92575976 16.36914062 37.26367188 C16.31407176 42.98883801 16.23044419 48.71305203 16.125 54.4375 C13.91805426 54.60012303 11.7110017 54.76129663 9.50390625 54.921875 C7.66034546 55.05674316 7.66034546 55.05674316 5.77954102 55.19433594 C-6.95646679 56.04175819 -6.95646679 56.04175819 -11.48803711 54.61450195 C-14.35368401 52.00092177 -14.27233802 51.29036081 -14.49023438 47.53881836 C-14.50976577 45.45173926 -14.50066969 43.36427015 -14.46875 41.27734375 C-14.46881042 39.62612267 -14.46881042 39.62612267 -14.46887207 37.94154358 C-14.46350863 35.6138844 -14.4458911 33.28622619 -14.41699219 30.95874023 C-14.37512122 27.38534561 -14.37592269 23.81383296 -14.3828125 20.24023438 C-14.37232132 17.98175767 -14.35938361 15.72329072 -14.34375 13.46484375 C-14.34354858 12.39088852 -14.34334717 11.31693329 -14.34313965 10.21043396 C-14.32722778 9.2192305 -14.31131592 8.22802704 -14.29492188 7.20678711 C-14.28650269 6.33203232 -14.2780835 5.45727753 -14.26940918 4.55601501 C-14.13925415 3.85690506 -14.00909912 3.1577951 -13.875 2.4375 C-9.42920106 -0.52636596 -5.23252419 0.03030419 0 0 Z " fill="#596774" transform="translate(13.875,298.5625)"/>
<path d="M0 0 C7.59 0 15.18 0 23 0 C23 17.16 23 34.32 23 52 C15.41 52 7.82 52 0 52 C0 34.84 0 17.68 0 0 Z " fill="#88F7F1" transform="translate(9,152)"/>
<path d="M0 0 C12.87 0 25.74 0 39 0 C35.535 7.425 35.535 7.425 32 15 C31.01 20.61 30.02 26.22 29 32 C14.81 32 0.62 32 -14 32 C-14 31.67 -14 31.34 -14 31 C-9.38 31 -4.76 31 0 31 C0 20.77 0 10.54 0 0 Z " fill="#FD993C" transform="translate(30,322)"/>
<path d="M0 0 C6.36701114 5.24342094 10.02465502 13.09862007 12 21 C12 25.29 12 29.58 12 34 C1.77 34 -8.46 34 -19 34 C-19 22.59575799 -17.76336773 15.23020722 -10 7 C-6.87671252 4.32455821 -3.68654618 1.84327309 0 0 Z " fill="#FF993B" transform="translate(408,118)"/>
<path d="M0 0 C8.25 0 16.5 0 25 0 C25 10.23 25 20.46 25 31 C16.75 31 8.5 31 0 31 C0 20.77 0 10.54 0 0 Z " fill="#01D3D8" transform="translate(267,322)"/>
</svg>
